<svg xmlns="http://www.w3.org/2000/svg" width="93.201" height="120.074" viewBox="0 0 93.201 120.074"><defs><style>.a{fill:#29d456;}</style></defs><path class="a" d="M46.357,0H65.99V90.885a129.581,129.581,0,0,1-25.5,2.677c-23.971,0-36.464-10.837-36.464-31.621,0-20.018,13.259-33.022,33.787-33.022a31.344,31.344,0,0,1,8.541,1.021Zm0,45.745a19.483,19.483,0,0,0-6.629-1.021c-9.947,0-15.68,6.119-15.68,16.831,0,10.457,5.484,16.191,15.555,16.191a45.3,45.3,0,0,0,6.754-.51V45.74ZM97.23,30.32V75.835c0,15.68-1.146,23.205-4.588,29.7-3.187,6.249-7.395,10.2-16.066,14.535L58.345,111.4c8.671-4.078,12.878-7.65,15.555-13.134,2.807-5.609,3.7-12.113,3.7-29.194V30.315H97.23ZM77.6.105H97.23V20.248H77.6Z" transform="translate(-4.029)"/></svg>