<svg xmlns="http://www.w3.org/2000/svg" width="115.649" height="90.867" viewBox="0 0 115.649 90.867"><defs><style>.a{fill:#fba209;}</style></defs><g transform="translate(24.75 -2.25)"><path class="a" d="M20.683,2.813H.032V57.668c0,13.573-4.655,17.363-12.755,17.363A30.857,30.857,0,0,1-22.6,73.466L-24.75,89.524a48.963,48.963,0,0,0,14.174,2.09c18.6,0,31.259-8.744,31.259-33.812V2.813Z" transform="translate(0 1.503)"/><path class="a" d="M23.646,2.25C3.654,2.25-9,13.608-9,28.62-9,41.549.745,49.644,14.915,54.865c10.248,3.655,14.3,6.92,14.3,12.272,0,5.874-4.682,9.661-13.539,9.661A44.775,44.775,0,0,1-5.079,71.311v-.005L-9,87.625c4.812,2.746,13.8,5.487,23.534,5.487,23.41,0,34.29-12.533,34.29-27.285,0-12.533-6.959-20.626-22.014-26.373-11.136-4.438-15.816-6.917-15.816-12.531,0-4.44,4.05-8.485,12.4-8.485A35.714,35.714,0,0,1,40.564,22.9L45.5,6.381C40.338,4.114,33.384,2.25,23.646,2.25Z" transform="translate(42.074)"/></g></svg>