<svg xmlns="http://www.w3.org/2000/svg" width="114.89" height="114.888" viewBox="0 0 114.89 114.888"><defs><style>.a{fill:#d9d9d9;}</style></defs><path class="a" d="M85.272,107.715c-.426.225-.4.316.024.1a1.091,1.091,0,0,0,.335-.225c0-.077-.01-.067-.359.124Zm.852-.45c-.2.158-.2.168.043.043a.688.688,0,0,0,.249-.168C86.417,107.05,86.359,107.074,86.125,107.265Zm.56-.34c-.2.158-.2.168.043.043a.689.689,0,0,0,.249-.168C86.977,106.71,86.919,106.734,86.685,106.925Zm.56-.335c-.2.158-.2.168.043.043a.689.689,0,0,0,.249-.168C87.537,106.375,87.479,106.4,87.245,106.59Zm.776-.5c-.393.249-.517.416-.168.225.249-.144.651-.45.584-.46a2.231,2.231,0,0,0-.416.235ZM53.681.021c-.249.024-1.034.1-1.743.158A57.57,57.57,0,0,0,10.658,23.986,56.854,56.854,0,0,0,.519,49.085,44.046,44.046,0,0,0,0,57.454a44.074,44.074,0,0,0,.517,8.368,57.682,57.682,0,0,0,39.294,46.413,60.7,60.7,0,0,0,12.126,2.513,105.492,105.492,0,0,0,11.006,0,57.993,57.993,0,0,0,20.7-6.051c.986-.507,1.178-.642,1.044-.752q-4.721-6.238-9.354-12.542L66.142,82.994,54.634,65.961q-5.739-8.549-11.59-17.023c-.043-.01-.091,7.559-.11,16.8-.034,16.181-.043,16.832-.249,17.215a2.03,2.03,0,0,1-.986,1.02c-.359.182-.675.215-2.37.215H37.385l-.517-.326a2.116,2.116,0,0,1-.752-.819l-.235-.507.024-22.515L35.94,37.5l.349-.436a3.049,3.049,0,0,1,.833-.685c.46-.225.641-.249,2.585-.249,2.293,0,2.671.091,3.27.742q6.988,10.4,13.859,20.877C64.295,69.053,74.487,84.492,79.5,92.075l9.1,13.778.46-.3a59.075,59.075,0,0,0,11.8-10.355,57.16,57.16,0,0,0,13.519-29.365,44.046,44.046,0,0,0,.517-8.368,44.076,44.076,0,0,0-.517-8.368A57.682,57.682,0,0,0,75.08,2.682,60.09,60.09,0,0,0,63.122.179c-1.077-.11-8.5-.235-9.431-.144ZM77.2,34.767a2.255,2.255,0,0,1,1.135,1.326c.091.292.11,6.535.091,20.6L78.388,76.89l-3.562-5.457-3.571-5.457V51.3c0-9.488.043-14.821.11-15.08A2.317,2.317,0,0,1,72.476,34.8c.46-.235.627-.259,2.394-.259C76.531,34.542,76.823,34.566,77.2,34.767Z" transform="translate(-0.001 -0.003)"/></svg>